PathFileType	4	(X/Y/Z)	C:/Users/opensim2020/Desktop/walking_exp_matlab/subject02_walking06_static.trc																																																																																																																									
DataRate	CameraRate	NumFrames	NumMarkers	Units	OrigDataRate	OrigDataStartFrame	OrigNumFrames																																																																																																																					
100	100	8	41	mm	100	72	287																																																																																																																					
Frame#	Time	LFHD			RFHD			LBHD			RBHD			C7			T10			CLAV			STRN			RBAK			LSHO			LUPA			LELB			LFRM			LWRA			LWRB			LFIN			RSHO			RUPA			RELB			RFRM			RWRA			RWRB			RFIN			LASI			RASI			LPSI			RPSI			LTHI			LKNE			LTIB			LANK			LHEE			LTOE			RTHI			RKNE			RTIB			RANK			RHEE			RTOE			*39			*40		
		X1	Y1	Z1	X2	Y2	Z2	X3	Y3	Z3	X4	Y4	Z4	X5	Y5	Z5	X6	Y6	Z6	X7	Y7	Z7	X8	Y8	Z8	X9	Y9	Z9	X10	Y10	Z10	X11	Y11	Z11	X12	Y12	Z12	X13	Y13	Z13	X14	Y14	Z14	X15	Y15	Z15	X16	Y16	Z16	X17	Y17	Z17	X18	Y18	Z18	X19	Y19	Z19	X20	Y20	Z20	X21	Y21	Z21	X22	Y22	Z22	X23	Y23	Z23	X24	Y24	Z24	X25	Y25	Z25	X26	Y26	Z26	X27	Y27	Z27	X28	Y28	Z28	X29	Y29	Z29	X30	Y30	Z30	X31	Y31	Z31	X32	Y32	Z32	X33	Y33	Z33	X34	Y34	Z34	X35	Y35	Z35	X36	Y36	Z36	X37	Y37	Z37	X38	Y38	Z38	X39	Y39	Z39	X40	Y40	Z40	X41	Y41	Z41
																																																																																																																												
72	0.71	19.11651	1751.52112	-693.1665	2.12573	1733.02209	-551.84314	-102.61207	1665.6792	-718.63885	-132.22733	1644.74121	-579.23767	-152.24751	1525.00586	-644.94965	-193.80222	1248.99536	-638.28711	-2.1529	1474.30457	-650.87982	62.03415	1309.15356	-639.29248	-190.97295	1352.72644	-567.02429	-49.83789	1514.65845	-818.63641	-42.82135	1334.67859	-928.59674	-50.14866	1195.23889	-961.39221	-33.91008	1060.13074	-975.43726	12.49056	936.30963	-931.55524	-24.02616	937.07104	-975.05133	-0.014	875.39459	-974.85986	-54.45754	1514.38184	-462.05255	-55.7122	1347.91333	-343.81607	-35.40955	1200.60608	-309.22806	1.31244	1082.36255	-299.24893	42.53833	956.70166	-332.42676	11.55609	952.16388	-285.47433	50.75059	892.33368	-296.13251	38.08714	993.84723	-757.55164	28.26314	986.28369	-507.40234	-173.81166	1028.90881	-689.32245	-182.6626	1030.58813	-574.4953	-37.39419	686.24164	-838.08392	-71.31103	484.41711	-827.65094	-126.44568	299.59265	-851.77307	-116.26353	72.46415	-847.22797	-151.63855	40.88041	-801.28302	42.82959	30.99885	-860.33575	-60.22876	683.08667	-414.72641	-60.42651	471.68405	-431.29764	-111.97884	292.06534	-403.88004	-134.30328	96.8306	-415.2146	-166.75365	37.49512	-465.10104	15.35193	37.96011	-379.73837	-99.25992	1808.43201	-618.55176	3360.28296	1033.90356	2845.20435
73	0.72	19.16698	1751.54382	-693.30151	2.13843	1733.04626	-551.86224	-102.57104	1665.64832	-718.69513	-131.90466	1644.72852	-579.61902	-152.26436	1524.9436	-645.07513	-193.85168	1249.03186	-638.52197	-2.20056	1474.26819	-650.9472	61.99726	1309.13843	-639.36627	-191.02553	1352.71899	-567.34589	-49.76894	1514.81445	-818.70679	-42.76896	1334.82959	-928.70923	-50.28214	1195.3573	-961.5448	-34.29138	1060.31921	-975.97382	12.03097	936.45886	-931.75806	-24.59739	936.96887	-974.88141	-0.7681	875.39313	-974.89465	-54.70515	1514.15442	-462.12448	-55.91856	1347.54822	-343.88632	-35.63478	1200.3197	-309.33533	1.25319	1082.18298	-299.47415	42.65126	956.56152	-332.79221	11.65781	951.97998	-285.8215	50.91193	892.2027	-296.60403	38.12952	993.87195	-757.49109	28.19389	986.30396	-507.39325	-173.85367	1028.9071	-689.36456	-182.61528	1030.62695	-574.52753	-37.35503	686.2486	-838.11896	-71.31802	484.39966	-827.63654	-126.37277	299.51358	-851.67377	-116.16017	72.37167	-847.11096	-151.62726	40.84019	-801.3114	42.84501	30.97499	-860.33527	-60.24031	683.06952	-414.72421	-60.4443	471.69052	-431.33783	-111.99726	292.05914	-403.87067	-134.30746	96.83179	-415.21524	-166.71783	37.50298	-465.13873	15.35192	37.95842	-379.7363	-99.23795	1808.43848	-618.79559	3357.32373	1033.90662	2846.03418
74	0.73	19.14843	1751.41882	-693.12146	2.06553	1733.01172	-551.8999	-102.5219	1665.63806	-718.76904	-132.26595	1644.75513	-579.38245	-152.30956	1524.9093	-645.21906	-193.86377	1249.02234	-638.78802	-2.23742	1474.23071	-651.01611	61.99427	1309.10828	-639.43658	-191.10983	1352.62756	-568.51221	-49.77052	1514.93762	-818.81781	-42.63584	1335.10559	-928.87299	-50.4702	1195.46899	-961.62439	-34.81819	1060.27551	-975.62537	11.44618	936.48187	-931.8587	-25.22309	937.08209	-974.94788	-1.71097	875.39941	-974.83972	-54.91041	1513.92957	-462.22049	-56.38375	1347.29114	-343.83878	-35.82073	1200.09521	-309.40427	1.3479	1081.80676	-299.79922	42.64335	956.38507	-333.18753	11.84069	951.56183	-286.50391	51.17348	892.08691	-296.99127	38.16333	993.85876	-757.43066	28.09822	986.32288	-507.3916	-173.8768	1028.87854	-689.41083	-182.62134	1030.67346	-574.57397	-37.30622	686.22034	-838.11487	-71.30755	484.37753	-827.61102	-126.40197	299.53922	-851.70105	-116.16854	72.51969	-847.35919	-151.63258	40.85604	-801.32751	42.84061	30.99146	-860.34937	-60.27285	683.06378	-414.7374	-60.41729	471.69388	-431.30118	-112.01051	292.05673	-403.88364	-134.32693	96.82114	-415.23059	-166.74513	37.49716	-465.07031	15.33904	37.94708	-379.73831	-99.2617	1808.39746	-618.74774	3360.19702	1033.84607	2845.08252
75	0.74	19.24094	1751.52612	-693.29431	2.05764	1732.97546	-551.89941	-102.47158	1665.63037	-718.85437	-132.30626	1644.72693	-579.48901	-152.32961	1524.85718	-645.34003	-193.85095	1248.99817	-639.01654	-2.27711	1474.21643	-651.06525	61.96379	1309.104	-639.50378	-190.76256	1352.47241	-569.06415	-49.72364	1515.04016	-818.91907	-42.47238	1335.23059	-928.98962	-50.73353	1195.59436	-961.67889	-35.22729	1060.41724	-975.80023	10.78118	936.53314	-932.00952	-26.02168	937.32544	-975.17828	-2.55823	875.4317	-975.0257	-55.1376	1513.76465	-462.3045	-56.74303	1346.96631	-343.99225	-36.20125	1199.87256	-309.7803	1.18801	1081.80249	-299.93546	42.65071	956.26129	-333.58301	11.91881	951.38013	-286.83075	51.4207	892.02557	-297.30591	38.22371	993.92566	-757.40424	28.03917	986.32898	-507.42654	-173.91432	1028.86169	-689.48297	-182.61739	1030.6759	-574.62701	-37.25785	686.23737	-838.12238	-71.36656	484.44629	-827.573	-126.40665	299.53476	-851.70453	-116.25636	72.56351	-847.4339	-151.63411	40.83647	-801.30658	42.8301	30.99111	-860.32532	-60.32312	683.07507	-414.71964	-60.46562	471.72021	-431.33649	-112.03197	292.06668	-403.90762	-134.33128	96.83698	-415.20728	-166.58411	37.30024	-465.15967	15.33689	37.99503	-379.73508	-99.25352	1808.37781	-618.73535	3357.19849	1034.00085	2845.79883
76	0.75	19.27794	1751.4967	-693.24005	2.05963	1732.93799	-551.90735	-102.43801	1665.64868	-718.92352	-132.27885	1644.66125	-579.57288	-152.36411	1524.82007	-645.48541	-193.909	1248.99731	-639.30072	-2.33328	1474.17871	-651.1441	61.93186	1309.09888	-639.59937	-190.84775	1352.38867	-569.29077	-49.61152	1515.15417	-818.99255	-42.36742	1335.3324	-929.0802	-50.9842	1195.6759	-961.71259	-35.6143	1060.58301	-976.08136	10.08779	936.39667	-931.97534	-26.61668	937.39154	-975.30499	-3.5086	875.26581	-975.00739	-55.34129	1513.56262	-462.34357	-56.79494	1346.73926	-344.23083	-36.30611	1199.61536	-309.94144	1.28515	1081.39661	-300.25894	42.67752	956.21271	-333.87204	11.90625	951.34229	-286.91891	51.52224	891.86108	-297.73752	38.26008	993.90094	-757.38239	27.96926	986.32971	-507.44736	-173.93402	1028.86023	-689.55817	-182.63821	1030.70508	-574.7002	-37.21531	686.23059	-838.11963	-71.35932	484.45322	-827.60443	-126.4751	299.58936	-851.80292	-116.24577	72.52982	-847.40649	-151.62679	40.83722	-801.28717	42.83477	31.00571	-860.30182	-60.39927	683.08496	-414.74112	-60.45637	471.7345	-431.48303	-112.05751	292.06934	-403.91544	-134.35854	96.84378	-415.20956	-166.73981	37.52353	-465.09888	15.32869	37.98006	-379.72012	-99.22661	1808.39429	-618.73694	3357.32373	1034.13208	2845.80078
77	0.76	19.34375	1751.50989	-693.28375	1.99537	1732.88757	-551.91461	-102.39022	1665.67041	-718.99445	-132.25398	1644.70288	-579.72778	-152.39917	1524.78625	-645.62897	-193.92249	1248.97107	-639.5896	-2.35385	1474.1394	-651.19354	61.89679	1309.06775	-639.68109	-191.23921	1352.27869	-568.58679	-49.42983	1515.2312	-819.03638	-42.30924	1335.34277	-929.1236	-51.21935	1195.71765	-961.72028	-36.13667	1060.51855	-975.68921	9.27613	936.17059	-931.88416	-27.31882	937.43774	-975.35571	-4.54737	875.27191	-975.0752	-55.53099	1513.42651	-462.42645	-56.92052	1346.44983	-344.3602	-36.33446	1199.38977	-310.12241	1.26061	1081.16125	-300.51938	42.68381	955.69659	-334.52933	12.22239	950.99011	-287.60995	51.66521	891.71417	-298.07034	38.32293	993.8681	-757.42346	27.92727	986.34644	-507.4798	-173.89311	1028.83545	-689.66565	-182.65082	1030.69727	-574.78802	-37.11819	686.22119	-838.1264	-71.24451	484.39523	-827.66962	-126.43223	299.56427	-851.80902	-116.16452	72.33652	-847.12305	-151.63933	40.8278	-801.32648	42.8302	31.01307	-860.3382	-60.54407	683.08411	-414.77756	-60.47905	471.75162	-431.54517	-112.07908	292.09094	-403.91376	-134.36847	96.83802	-415.18533	-166.72977	37.45533	-465.13147	15.3202	37.96689	-379.70676	-99.21962	1808.35315	-618.77917	NaN	NaN	NaN
78	0.77	19.40643	1751.51062	-693.2702	2.02639	1732.78674	-551.91895	-102.3517	1665.69409	-719.07599	-132.15994	1644.57947	-579.85535	-152.42345	1524.76941	-645.76685	-193.9583	1248.95215	-639.84204	-2.36361	1474.08899	-651.22827	61.89689	1309.05847	-639.74219	-191.46159	1352.38586	-568.68256	-49.24891	1515.28003	-819.08667	-42.262	1335.39551	-929.3374	-51.42534	1195.71411	-961.67102	-36.63589	1060.51538	-975.6358	8.70066	936.21924	-932.22247	-28.02699	937.27142	-975.01483	-5.52548	875.09271	-975.02429	-55.76521	1513.2915	-462.46832	-56.9215	1346.22986	-344.50278	-36.09475	1199.15381	-310.16223	1.32168	1080.94421	-300.83344	42.22816	955.47675	-334.80878	12.05023	950.83551	-287.53967	51.74823	891.54614	-298.39761	38.38625	993.86084	-757.46649	27.84174	986.3363	-507.54333	-173.89894	1028.80505	-689.81006	-182.7048	1030.65723	-574.9361	-37.03916	686.19916	-838.14984	-71.1839	484.38986	-827.70038	-126.31844	299.51273	-851.75909	-116.19577	72.49667	-847.38501	-151.66742	40.8709	-801.32391	42.83191	31.00632	-860.31201	-60.3584	683.02954	-415.21588	-60.63955	471.77853	-431.36234	-112.13669	292.07962	-403.98511	-134.39339	96.81968	-415.2319	-166.76566	37.46445	-465.17255	15.31478	37.98203	-379.707	-99.17776	1808.34143	-618.79156	NaN	NaN	NaN
79	0.78	19.37757	1751.38574	-693.09985	2.04457	1732.76172	-551.91919	-102.34669	1665.72742	-719.09479	-132.18912	1644.54224	-579.90564	-152.4292	1524.75513	-645.86169	-193.97127	1248.92932	-640.06433	-2.39036	1474.05029	-651.24316	61.86988	1309.0199	-639.78308	-191.35896	1352.1936	-569.05054	-49.16763	1515.27429	-819.05145	-42.41686	1335.40283	-929.23584	-51.61758	1195.65613	-961.54022	-37.18127	1060.47546	-975.53864	7.80379	935.96484	-931.9126	-28.76342	937.26221	-975.0542	-6.46354	874.99121	-975.10071	-55.97517	1513.203	-462.52075	-57.19934	1346.15784	-344.81366	-36.1275	1198.88367	-310.56821	1.52668	1080.73291	-301.09183	42.67789	955.17694	-335.2493	12.22166	950.51123	-288.14114	51.78355	891.33954	-298.74692	38.45604	993.84698	-757.53503	27.81742	986.32147	-507.60507	-173.85793	1028.77148	-689.96216	-182.74332	1030.63708	-575.07208	-36.95159	686.24011	-838.34937	-71.12997	484.38217	-827.74951	-126.35157	299.60452	-851.88379	-116.19795	72.50249	-847.37866	-151.62906	40.83915	-801.31555	42.82589	31.00408	-860.32666	-60.71269	683.13544	-414.87555	-60.56591	471.77814	-431.58087	-112.19791	292.08743	-404.02356	-134.4267	96.8555	-415.24866	-166.77702	37.48283	-465.15927	15.31498	37.98764	-379.70581	-99.17118	1808.36841	-618.87805	NaN	NaN	NaN
